<svg xmlns="http://www.w3.org/2000/svg" version="1.1" viewBox="0 0 202.319 118.073">
  <path
    d="M17.852 34.072v17.733h-5.337V11.672h27.627v4.78h-22.29v12.951h18.844v4.67H17.852ZM47.917 39.52c0 5.56 2.89 8.616 7.67 8.616 6.672 0 10.841-6.059 10.841-14.174V20.065h4.891v31.74h-4.89v-6.56c-2.613 4.503-6.95 7.282-12.174 7.282-6.782 0-11.285-4.669-11.285-11.506V20.065h4.947V39.52ZM101.439 27.458l-4.613 2.057c-.556-3.67-3.892-5.893-8.172-5.893-3.669 0-6.615 1.78-6.615 4.28 0 7.227 19.734 3.058 19.734 15.01 0 5.78-5.004 9.615-12.285 9.615-7.17 0-12.285-3.28-13.953-9.56l4.447-2.057c.667 4.67 4.67 7.449 9.506 7.449 4.224 0 7.281-2.168 7.281-5.115 0-7.67-19.621-3.446-19.621-15.008 0-5.28 4.724-8.782 11.617-8.782 6.226 0 11.229 3.057 12.674 8.004ZM129.503 40.854l4.392 2.002c-1.946 6.059-7.06 9.616-13.73 9.616-9.172 0-15.62-6.56-15.62-16.565 0-9.95 6.226-16.564 15.509-16.564 9.45 0 15.063 6.892 14.619 17.62H109.77c-.055 6.782 4.448 11.23 10.451 11.23 4.724 0 8.227-2.725 9.282-7.339Zm0-7.893c-.444-5.726-4.057-9.339-9.505-9.339-5.559 0-9.56 3.67-10.061 9.339h19.566ZM12.515 101.63V61.496h12.73c7.115 0 11.952 1.723 15.453 4.78 4.058 3.502 6.338 8.783 6.338 15.286 0 6.505-2.28 11.785-6.338 15.287-3.501 3.057-8.338 4.78-15.453 4.78h-12.73ZM24.8 96.85c10.229 0 16.732-4.447 16.732-15.288 0-4.947-1.501-8.837-4.225-11.506-2.668-2.446-6.448-3.78-12.507-3.78h-6.948V96.85H24.8ZM75.597 90.679l4.392 2.001c-1.946 6.06-7.06 9.617-13.73 9.617-9.172 0-15.62-6.56-15.62-16.565 0-9.95 6.226-16.565 15.508-16.565 9.45 0 15.064 6.893 14.62 17.621H55.864c-.055 6.781 4.447 11.229 10.45 11.229 4.725 0 8.228-2.724 9.283-7.338Zm0-7.894c-.444-5.725-4.057-9.338-9.505-9.338-5.559 0-9.56 3.669-10.061 9.338h19.566ZM109.218 77.282l-4.613 2.057c-.556-3.669-3.892-5.892-8.172-5.892-3.668 0-6.614 1.779-6.614 4.28 0 7.226 19.733 3.058 19.733 15.009 0 5.78-5.003 9.616-12.285 9.616-7.17 0-12.285-3.28-13.952-9.561l4.446-2.057c.667 4.67 4.67 7.45 9.506 7.45 4.225 0 7.282-2.169 7.282-5.115 0-7.671-19.622-3.446-19.622-15.008 0-5.281 4.724-8.783 11.618-8.783 6.225 0 11.228 3.057 12.673 8.004ZM118.94 101.63h-4.948V69.89h4.947v31.74ZM149.23 69.834h4.948v28.849c0 10.952-5.67 16.844-15.565 16.844-7.337 0-12.395-3.113-14.563-9.172l4.168-2.835c.89 4.78 4.67 7.614 10.284 7.614 6.727 0 10.729-4.335 10.729-11.561v-4.558c-2.113 4.335-6.393 6.837-11.285 6.837-8.282 0-14.285-6.559-14.285-16.287 0-10.45 6.67-16.398 14.453-16.398 4.613 0 8.67 2.168 11.117 6.17v-5.503Zm-10.227 3.724c-6.06 0-10.284 4.67-10.284 11.896 0 7.282 4.336 12.007 10.34 12.007 6.002 0 10.172-4.725 10.172-12.063 0-7.226-4.17-11.84-10.228-11.84ZM188.412 101.63h-4.947V82.34c0-5.502-2.892-8.726-7.671-8.726-6.171 0-10.563 5.392-10.563 13.23v14.786h-4.947V69.89h4.947v6.003c2.558-4.225 6.838-6.726 11.952-6.726 7.004 0 11.229 4.724 11.229 12.229v20.234Z"
    fill="#fff"
  />
  <circle cx="116.379" cy="62.954" r="3.119" fill="#fff" />
</svg>
