<?xml version="1.0" encoding="UTF-8"?>
<svg id="Layer_1" xmlns="http://www.w3.org/2000/svg" version="1.1" viewBox="0 0 202.3190966 118.0726415">
  <!-- Generator: Adobe Illustrator 29.8.0, SVG Export Plug-In . SVG Version: 2.1.1 Build 160)  -->
  <defs>
    <style>
      .st0 {
        fill: #010101;
      }
    </style>
  </defs>
  <path class="st0" d="M17.8518015,34.0724428v17.732591h-5.3363393V11.6716076h27.6267611v4.7805291h-22.2904218v12.9511262h18.8442114v4.6691799h-18.8442114Z"/>
  <path class="st0" d="M47.9170161,39.5201313c0,5.5590377,2.8904002,8.6159938,7.6709293,8.6159938,6.6706581,0,10.8401703-6.0587054,10.8401703-14.1740958v-13.8971264h4.8909426v31.7401308h-4.8909426v-6.5593089c-2.6124951,4.502624-6.9485632,7.281675-12.1735533,7.281675-6.7820073,0-11.2846313-4.6691799-11.2846313-11.5063939v-20.956103h4.947085v19.4552283Z"/>
  <path class="st0" d="M101.4385439,27.4579272l-4.6130375,2.0566849c-.5558102-3.6689087-3.8916071-5.8921495-8.1715328-5.8921495-3.6689087,0-6.6145156,1.7787798-6.6145156,4.2799257,0,7.2264683,19.7331334,3.0578918,19.7331334,15.0087468,0,5.7808003-5.0032275,9.616265-12.2849025,9.616265-7.1703258,0-12.2849025-3.2796545-13.9523331-9.5610583l4.4464816-2.0566849c.6671594,4.6701157,4.6701157,7.4491666,9.5058515,7.4491666,4.2247189,0,7.281675-2.1680341,7.281675-5.1145767,0-7.6709293-19.6217843-3.4462104-19.6217843-15.0078111,0-5.2811326,4.7243867-8.7825497,11.6177431-8.7825497,6.2252614,0,11.2284888,3.0569561,12.6732211,8.0040411Z"/>
  <path class="st0" d="M129.5032161,40.8544501l4.3922106,2.0014781c-1.9462714,6.0587054-7.0599124,9.616265-13.7305704,9.616265-9.171804,0-15.6197637-6.5593089-15.6197637-16.5648282,0-9.9503125,6.2261971-16.5648282,15.5084145-16.5648282,9.4497091,0,15.0639535,6.8924207,14.6194925,17.6212418h-24.9029168c-.0552067,6.7810716,4.4474173,11.2284888,10.450916,11.2284888,4.7243867,0,8.2267395-2.7238443,9.2822174-7.3378175ZM129.5032161,32.9608224c-.444461-5.7255936-4.0572273-9.3383599-9.5049158-9.3383599-5.5590377,0-9.5610583,3.6689087-10.0616617,9.3383599h19.5665775Z"/>
  <path class="st0" d="M12.5154622,101.6295817v-40.1334263h12.7293635c7.1151191,0,11.9517907,1.7226373,15.4532078,4.7805291,4.058163,3.5014171,6.3375462,8.7825497,6.3375462,15.2857162,0,6.5041022-2.2793832,11.784299-6.3375462,15.2866519-3.5014171,3.0569561-8.3380887,4.7805291-15.4532078,4.7805291h-12.7293635ZM24.8003647,96.8490525c10.2282176,0,16.7313841-4.4464816,16.7313841-15.2866519,0-4.947085-1.5008747-8.8377564-4.2247189-11.5063939-2.6677018-2.4459392-6.4479597-3.7793222-12.5066652-3.7793222h-6.9485632v30.572368h6.9485632Z"/>
  <path class="st0" d="M75.5971126,90.6789979l4.3922106,2.0014781c-1.9462714,6.0587054-7.0599124,9.616265-13.7305704,9.616265-9.171804,0-15.6197637-6.5593089-15.6197637-16.5648282,0-9.9503125,6.2261971-16.5648282,15.5084145-16.5648282,9.4497091,0,15.0639535,6.8924207,14.6194925,17.6212418h-24.9029168c-.0552067,6.7810716,4.4474173,11.2284888,10.450916,11.2284888,4.7243867,0,8.2267395-2.7238443,9.2822174-7.3378175ZM75.5971126,82.7853703c-.444461-5.7255936-4.0572273-9.3383599-9.5049158-9.3383599-5.5590377,0-9.5610583,3.6689087-10.0616617,9.3383599h19.5665775Z"/>
  <path class="st0" d="M109.2180153,77.282475l-4.6130375,2.0566849c-.5558102-3.6689087-3.8916071-5.8921495-8.1715328-5.8921495-3.6689087,0-6.6145156,1.7787798-6.6145156,4.2799257,0,7.2264683,19.7331334,3.0578918,19.7331334,15.0087468,0,5.7808003-5.0032275,9.616265-12.2849025,9.616265-7.1703258,0-12.2849025-3.2796545-13.9523331-9.5610583l4.4464816-2.0566849c.6671594,4.6701157,4.6701157,7.4491666,9.5058515,7.4491666,4.2247189,0,7.281675-2.1680341,7.281675-5.1145767,0-7.6709293-19.6217843-3.4462104-19.6217843-15.0078111,0-5.2811326,4.7243867-8.7825497,11.6177431-8.7825497,6.2252614,0,11.2284888,3.0569561,12.6732211,8.0040411Z"/>
  <path class="st0" d="M118.9390795,101.6295817h-4.947085v-31.7401308h4.947085v31.7401308Z"/>
  <path class="st0" d="M149.2307353,69.8342441h4.947085v28.848795c0,10.9515195-5.6694512,16.843669-15.564557,16.843669-7.3368818,0-12.395316-3.1130985-14.56335-9.171804l4.1685765-2.8351934c.8898577,4.7805291,4.6691799,7.6147869,10.2834244,7.6147869,6.7268005,0,10.7288211-4.3351324,10.7288211-11.5616007v-4.5578308c-2.1128273,4.3351324-6.392753,6.837214-11.2846313,6.837214-8.2819462,0-14.2854449-6.5593089-14.2854449-16.2869231,0-10.450916,6.6706581-16.3982723,14.4529366-16.3982723,4.6130375,0,8.6712005,2.1680341,11.1171397,6.1700546v-5.5028952ZM139.0025177,73.5583596c-6.0587054,0-10.2834244,4.6691799-10.2834244,11.8956482,0,7.281675,4.3360681,12.0069974,10.3395668,12.0069974,6.002563,0,10.1720752-4.7253224,10.1720752-12.0631399,0-7.2255326-4.1695122-11.8395058-10.2282176-11.8395058Z"/>
  <path class="st0" d="M188.4116114,101.6295817h-4.947085v-19.2886724c0-5.5028952-2.8913359-8.727343-7.6709293-8.727343-6.1709903,0-10.5622652,5.3924818-10.5622652,13.229967v14.7860484h-4.947085v-31.7401308h4.947085v6.0034987c2.5572883-4.2247189,6.837214-6.7258648,11.9517907-6.7258648,7.0037699,0,11.2284888,4.7243867,11.2284888,12.2287601v20.2337369Z"/>
  <circle class="st0" cx="116.3791083" cy="62.9541316" r="3.1194674"/>
</svg>