<svg xmlns="http://www.w3.org/2000/svg" viewBox="0 0 184.252 184.252">
  <circle cx="92.126" cy="92.126" r="83.178" fill="currentColor" />
  <g fill="#fff">
    <path
      d="M56.439 95.318v24.246h-7.297V64.688h37.776v6.536h-30.48v17.71h25.768v6.384H56.439ZM94.881 119.564V64.688h17.406c9.729 0 16.342 2.355 21.13 6.536 5.549 4.788 8.665 12.01 8.665 20.901 0 8.894-3.116 16.114-8.665 20.903-4.788 4.18-11.401 6.536-21.13 6.536H94.88Zm16.798-6.536c13.986 0 22.878-6.08 22.878-20.903 0-6.764-2.053-12.084-5.777-15.733-3.648-3.345-8.817-5.168-17.101-5.168h-9.501v41.804h9.5Z"
    />
  </g>
</svg>
