<?xml version="1.0" encoding="UTF-8"?>
<svg id="Layer_1" xmlns="http://www.w3.org/2000/svg" version="1.1" viewBox="0 0 184.2519685 184.2519685">
  <!-- Generator: Adobe Illustrator 29.8.0, SVG Export Plug-In . SVG Version: 2.1.1 Build 160)  -->
  <defs>
    <style>
      .st0 {
        fill: #010101;
      }

      .st1 {
        fill: #fff;
      }
    </style>
  </defs>
  <circle class="st0" cx="92.1259843" cy="92.1259843" r="83.1778729"/>
  <g>
    <path class="st1" d="M56.4388113,95.3175715v24.2468507h-7.2967015v-54.8768757h37.7757515v6.5367084h-30.47905v17.7088629h25.7668369v6.3844538h-25.7668369Z"/>
    <path class="st1" d="M94.8809601,119.5644221v-54.8768757h17.4056333c9.7289353,0,16.3424106,2.3554668,21.1301113,6.5367084,5.5489732,4.7877007,8.6657126,12.0089146,8.6657126,20.9010898,0,8.8934546-3.1167394,16.1133891-8.6657126,20.9023692-4.7877007,4.1799621-11.401176,6.5367084-21.1301113,6.5367084h-17.4056333ZM111.6788548,113.0277138c13.9856643,0,22.8778395-6.0799448,22.8778395-20.9023692,0-6.7644504-2.0522373-12.0844021-5.7767153-15.7333926-3.647711-3.3444814-8.8166877-5.1676972-17.1011243-5.1676972h-9.5011932v41.803459h9.5011932Z"/>
  </g>
</svg>