<svg xmlns="http://www.w3.org/2000/svg" id="logo-white" version="1.1" viewBox="0 0 175 103.5">
  <path d="M5.31 22.287v17.642H0V0h27.486v4.756H5.309v12.885h18.748v4.646H5.31ZM35.221 27.707c0 5.53 2.876 8.572 7.632 8.572 6.637 0 10.785-6.028 10.785-14.102V8.35h4.866v31.578h-4.866v-6.526c-2.6 4.48-6.913 7.245-12.112 7.245-6.747 0-11.227-4.646-11.227-11.448V8.35h4.922v19.357ZM88.47 15.706l-4.59 2.046c-.552-3.65-3.871-5.862-8.13-5.862-3.65 0-6.58 1.77-6.58 4.258 0 7.19 19.632 3.042 19.632 14.932 0 5.752-4.977 9.568-12.222 9.568-7.134 0-12.222-3.263-13.881-9.513l4.424-2.046c.663 4.646 4.646 7.411 9.457 7.411 4.203 0 7.245-2.157 7.245-5.088 0-7.632-19.522-3.429-19.522-14.932 0-5.254 4.7-8.737 11.558-8.737 6.194 0 11.172 3.041 12.61 7.963ZM116.392 29.034l4.37 1.991c-1.937 6.028-7.024 9.568-13.661 9.568-9.125 0-15.54-6.526-15.54-16.48 0-9.9 6.194-16.481 15.43-16.481 9.4 0 14.986 6.857 14.544 17.531H96.76c-.055 6.747 4.425 11.172 10.398 11.172 4.7 0 8.185-2.71 9.235-7.3Zm0-7.853c-.442-5.697-4.037-9.291-9.457-9.291-5.53 0-9.512 3.65-10.01 9.29h19.467ZM0 89.5V49.57h12.665c7.078 0 11.89 1.715 15.374 4.757 4.037 3.483 6.305 8.738 6.305 15.208 0 6.47-2.268 11.724-6.305 15.209-3.484 3.04-8.296 4.756-15.374 4.756H0Zm12.222-4.756c10.176 0 16.646-4.424 16.646-15.21 0-4.921-1.493-8.792-4.203-11.447-2.654-2.434-6.415-3.76-12.443-3.76H5.31v30.417h6.913ZM62.76 78.605l4.37 1.991c-1.936 6.028-7.024 9.567-13.66 9.567-9.126 0-15.54-6.525-15.54-16.48 0-9.9 6.194-16.48 15.429-16.48 9.401 0 14.987 6.857 14.545 17.531H43.128c-.055 6.747 4.424 11.171 10.397 11.171 4.7 0 8.185-2.71 9.235-7.3Zm0-7.854c-.442-5.696-4.036-9.29-9.456-9.29-5.53 0-9.513 3.65-10.01 9.29H62.76ZM96.21 65.277l-4.59 2.046c-.553-3.65-3.871-5.862-8.13-5.862-3.65 0-6.58 1.77-6.58 4.258 0 7.19 19.632 3.042 19.632 14.932 0 5.751-4.977 9.567-12.222 9.567-7.134 0-12.222-3.263-13.881-9.512l4.424-2.046c.663 4.646 4.646 7.411 9.457 7.411 4.203 0 7.245-2.157 7.245-5.088 0-7.632-19.522-3.43-19.522-14.932 0-5.254 4.7-8.738 11.558-8.738 6.194 0 11.172 3.042 12.609 7.964ZM105.881 89.5h-4.921V57.92h4.921V89.5ZM136.019 57.866h4.922v28.702c0 10.896-5.64 16.758-15.486 16.758-7.3 0-12.332-3.097-14.489-9.125l4.148-2.82c.885 4.755 4.645 7.575 10.23 7.575 6.693 0 10.675-4.313 10.675-11.503V82.92c-2.102 4.313-6.36 6.802-11.227 6.802-8.24 0-14.213-6.526-14.213-16.204 0-10.397 6.637-16.314 14.38-16.314 4.589 0 8.626 2.157 11.06 6.138v-5.475Zm-10.176 3.705c-6.028 0-10.231 4.646-10.231 11.836 0 7.244 4.314 11.945 10.287 11.945 5.971 0 10.12-4.7 10.12-12.001 0-7.19-4.149-11.78-10.176-11.78ZM175 89.5h-4.922V70.31c0-5.476-2.876-8.684-7.632-8.684-6.14 0-10.508 5.365-10.508 13.163v14.71h-4.922V57.922h4.922v5.973c2.544-4.203 6.802-6.691 11.89-6.691 6.969 0 11.172 4.7 11.172 12.166v20.13Z" fill="#fff" />
  <circle cx="103.335" cy="51.021" r="3.104" fill="#fff" />
</svg>